HIERARCHY
ROOT Hips
{
	OFFSET 0.00000 0.00000 0.00000
	CHANNELS 6 Xposition Yposition Zposition Zrotation Yrotation Xrotation 
	JOINT LHipJoint
	{
		OFFSET 0 0 0
		CHANNELS 3 Zrotation Yrotation Xrotation
		JOINT LeftUpLeg
		{
			OFFSET 1.57338 -1.94743 0.52196
			CHANNELS 3 Zrotation Yrotation Xrotation
			JOINT LeftLeg
			{
				OFFSET 2.60333 -7.15259 0.00000
				CHANNELS 3 Zrotation Yrotation Xrotation
				JOINT LeftFoot
				{
					OFFSET 2.77855 -7.63400 0.00000
					CHANNELS 3 Zrotation Yrotation Xrotation
					JOINT LeftToeBase
					{
						OFFSET 0.19847 -0.54529 2.28466
						CHANNELS 3 Zrotation Yrotation Xrotation
						End Site
						{
							OFFSET 0.00000 -0.00000 1.17993
						}
					}
				}
			}
		}
	}
	JOINT RHipJoint
	{
		OFFSET 0 0 0
		CHANNELS 3 Zrotation Yrotation Xrotation
		JOINT RightUpLeg
		{
			OFFSET -1.61527 -1.94743 0.52196
			CHANNELS 3 Zrotation Yrotation Xrotation
			JOINT RightLeg
			{
				OFFSET -2.53829 -6.97390 0.00000
				CHANNELS 3 Zrotation Yrotation Xrotation
				JOINT RightFoot
				{
					OFFSET -2.80762 -7.71387 0.00000
					CHANNELS 3 Zrotation Yrotation Xrotation
					JOINT RightToeBase
					{
						OFFSET -0.30536 -0.83898 2.28801
						CHANNELS 3 Zrotation Yrotation Xrotation
						End Site
						{
							OFFSET -0.00000 -0.00000 1.21323
						}
					}
				}
			}
		}
	}
	JOINT LowerBack
	{
		OFFSET 0 0 0
		CHANNELS 3 Zrotation Yrotation Xrotation
		JOINT Spine
		{
			OFFSET -0.04381 1.99497 -0.19778
			CHANNELS 3 Zrotation Yrotation Xrotation
			JOINT Spine1
			{
				OFFSET -0.01959 2.01295 -0.04372
				CHANNELS 3 Zrotation Yrotation Xrotation
				JOINT Neck
				{
					OFFSET 0 0 0
					CHANNELS 3 Zrotation Yrotation Xrotation
					JOINT Neck1
					{
						OFFSET -0.05459 1.76913 0.09708
						CHANNELS 3 Zrotation Yrotation Xrotation
						JOINT Head
						{
							OFFSET 0.09461 1.77368 -0.11172
							CHANNELS 3 Zrotation Yrotation Xrotation
							End Site
							{
								OFFSET 0.03812 1.78157 -0.04834
							}
						}
					}
				}
				JOINT LeftShoulder
				{
					OFFSET 0 0 0
					CHANNELS 3 Zrotation Yrotation Xrotation
					JOINT LeftArm
					{
						OFFSET 3.50922 1.24034 -0.28866
						CHANNELS 3 Zrotation Yrotation Xrotation
						JOINT LeftForeArm
						{
							OFFSET 5.40188 -0.00000 0.00000
							CHANNELS 3 Zrotation Yrotation Xrotation
							JOINT LeftHand
							{
								OFFSET 3.68559 -0.00000 0.00000
								CHANNELS 3 Zrotation Yrotation Xrotation
								JOINT LeftFingerBase
								{
									OFFSET 0 0 0
									CHANNELS 3 Zrotation Yrotation Xrotation
									JOINT LeftHandIndex1
									{
										OFFSET 0.61753 -0.00000 0.00000
										CHANNELS 3 Zrotation Yrotation Xrotation
										End Site
										{
											OFFSET 0.49787 -0.00000 0.00000
										}
									}
								}
								JOINT LThumb
								{
									OFFSET 0 0 0
									CHANNELS 3 Zrotation Yrotation Xrotation
									End Site
									{
										OFFSET 0.50547 -0.00000 0.50547
									}
								}
							}
						}
					}
				}
				JOINT RightShoulder
				{
					OFFSET 0 0 0
					CHANNELS 3 Zrotation Yrotation Xrotation
					JOINT RightArm
					{
						OFFSET -2.95373 1.39649 -0.27346
						CHANNELS 3 Zrotation Yrotation Xrotation
						JOINT RightForeArm
						{
							OFFSET -6.10670 -0.00000 -0.00000
							CHANNELS 3 Zrotation Yrotation Xrotation
							JOINT RightHand
							{
								OFFSET -3.63052 -0.00000 0.00000
								CHANNELS 3 Zrotation Yrotation Xrotation
								JOINT RightFingerBase
								{
									OFFSET 0 0 0
									CHANNELS 3 Zrotation Yrotation Xrotation
									JOINT RightHandIndex1
									{
										OFFSET -0.58385 -0.00000 0.00000
										CHANNELS 3 Zrotation Yrotation Xrotation
										End Site
										{
											OFFSET -0.47071 -0.00000 0.00000
										}
									}
								}
								JOINT RThumb
								{
									OFFSET 0 0 0
									CHANNELS 3 Zrotation Yrotation Xrotation
									End Site
									{
										OFFSET -0.47790 -0.00000 0.47790
									}
								}
							}
						}
					}
				}
			}
		}
	}
}
MOTION
Frames: 7
Frame Time: 0.033333
0.0989 15.6710 -6.2869 -356.9530 -26.8904 339.0480 0.0000 0.0000 0.0000 -6.1558 -4.9340 -36.4979 13.5746 18.9799 70.9011 0.2178 -5.9366 12.9541 0.0795 -1.8188 -5.0051 0.0000 0.0000 0.0000 -1.2756 6.3444 -39.1590 -15.9001 -19.5921 77.9339 -0.0444 -3.4577 4.1626 -0.0557 1.5223 -4.1873 -3.2053 1.3824 25.3776 -0.9964 0.6920 14.0471 0.5770 0.0327 1.4645 -8.1860 -2.4610 -8.8607 6.5753 -2.5637 -2.9525 3.5134 -1.1411 0.8256 0.0000 -0.0000 0.0000 -40.2418 -12.7191 85.1626 83.9830 -59.8628 -54.7916 -0.0000 -0.0000 26.7160 39.4626 7.4808 6.1176 -7.1250 0.0000 -0.0000 11.0257 39.4002 -1.5433 0.0000 -0.0000 0.0000 42.5959 10.3302 82.4082 -93.2971 59.9589 -62.8549 0.0000 0.0000 37.2439 -53.2590 24.4055 -28.9651 7.1250 -0.0000 -0.0000 -13.7895 6.2572 -15.6480
0.0983 15.6685 -6.2882 -356.9990 -26.8734 339.0770 0.0000 0.0000 0.0000 -6.0983 -4.9369 -36.5890 13.6033 18.9893 70.9892 0.2256 -5.8762 13.0228 0.0998 -2.0376 -5.6095 0.0000 0.0000 0.0000 -1.2295 6.3247 -39.1529 -15.8967 -19.5914 77.9238 -0.0430 -3.5088 4.1355 -0.0491 1.4301 -3.9332 -3.1358 1.3623 25.4317 -1.0100 0.6774 14.0791 0.5258 0.0291 1.4762 -8.2254 -2.4635 -8.9040 6.6166 -2.5572 -3.0829 3.5356 -1.1359 0.7918 0.0000 -0.0000 0.0000 -40.1730 -12.7662 85.1032 84.1021 -59.8681 -54.8945 -0.0000 -0.0000 26.7555 39.3251 7.3012 5.9437 -7.1250 0.0000 -0.0000 10.8853 39.1606 -1.5882 0.0000 -0.0000 0.0000 42.5797 10.3043 82.3547 -93.4838 59.9541 -63.0166 0.0000 0.0000 37.2577 -53.1553 24.5224 -28.9823 7.1250 -0.0000 -0.0000 -13.6997 6.3495 -15.5598
0.0978 15.6731 -6.2885 -357.0970 -26.9156 339.0320 0.0000 0.0000 0.0000 -5.9779 -4.9105 -36.5151 13.6253 18.9964 71.0569 0.2140 -6.1551 13.1061 0.1510 -2.5042 -6.9012 0.0000 0.0000 0.0000 -1.0776 6.3525 -38.9887 -15.8748 -19.5870 77.8583 -0.0402 -3.5482 4.0578 -0.0435 1.3455 -3.6999 -3.0590 1.3495 25.4837 -0.9946 0.6727 14.1872 0.4994 0.0264 1.5748 -8.2095 -2.4065 -9.0687 6.6011 -2.4704 -3.0861 3.5301 -1.0905 0.8122 0.0000 0.0000 0.0000 -40.1456 -12.7255 84.8849 84.1999 -59.8725 -54.9791 -0.0000 -0.0000 26.8848 39.3422 7.5568 6.1528 -7.1250 0.0000 -0.0000 10.9276 39.4843 -1.5063 0.0000 0.0000 0.0000 42.5193 10.5088 82.2216 -93.5105 59.9534 -63.0397 0.0000 0.0000 37.1958 -53.3520 24.6840 -29.3069 7.1250 -0.0000 -0.0000 -13.7600 6.6664 -15.6996
0.0961 15.6722 -6.2904 -357.1410 -26.9121 339.1050 0.0000 0.0000 0.0000 -5.8775 -4.9396 -36.6242 13.6169 18.9937 71.0311 0.2358 -5.9866 13.2911 0.1175 -2.2096 -6.0854 0.0000 0.0000 0.0000 -1.0028 6.3880 -39.0413 -15.8629 -19.5846 77.8230 -0.0391 -3.5576 4.0244 -0.0575 1.5474 -4.2565 -3.0277 1.2952 25.4534 -0.9837 0.6105 14.2147 0.5081 -0.0049 1.6218 -8.2532 -2.3249 -9.2142 6.4736 -2.3505 -2.8752 3.4991 -1.0307 0.8952 -0.0000 -0.0000 0.0000 -40.1976 -12.5701 84.7031 84.2241 -59.8736 -55.0001 -0.0000 -0.0000 26.9961 39.5524 7.4455 6.1085 -7.1250 0.0000 -0.0000 11.1011 39.3644 -1.5641 -0.0000 -0.0000 0.0000 42.5290 10.6932 82.2215 -93.4140 59.9559 -62.9561 0.0000 0.0000 37.2459 -53.6701 24.6562 -29.5659 7.1250 -0.0000 -0.0000 -13.9404 6.8102 -15.9485
0.0954 15.6699 -6.2892 -357.0400 -26.9163 339.0790 0.0000 0.0000 0.0000 -5.9807 -4.8972 -36.6510 13.6323 18.9987 71.0784 0.2220 -6.1266 13.2077 0.1549 -2.5357 -6.9887 0.0000 0.0000 0.0000 -1.1082 6.4197 -39.0966 -15.8906 -19.5902 77.9055 -0.0362 -3.5044 3.9021 -0.0642 1.6345 -4.4966 -3.0624 1.3420 25.4278 -0.9716 0.6650 14.2338 0.5283 0.0195 1.6538 -8.1278 -2.3038 -9.2154 6.1535 -2.3338 -2.7885 3.3635 -1.0281 0.9130 0.0000 -0.0000 0.0000 -40.3145 -12.5953 84.5929 84.2366 -59.8741 -55.0109 -0.0000 -0.0000 27.4010 39.1697 7.1953 5.8264 -7.1250 0.0000 -0.0000 10.7378 39.0130 -1.6056 0.0000 -0.0000 0.0000 42.4862 10.6076 82.1494 -93.5540 59.9522 -63.0773 0.0000 0.0000 37.1459 -53.6794 25.0510 -29.9415 7.1250 -0.0000 -0.0000 -13.8308 7.3209 -15.9235
0.0943 15.6751 -6.2853 -356.8550 -26.8011 339.0800 0.0000 0.0000 0.0000 -6.2236 -5.0377 -36.6254 13.5929 18.9859 70.9573 0.2308 -5.9564 13.1833 0.1270 -2.2972 -6.3278 0.0000 0.0000 0.0000 -1.3432 6.3110 -39.1408 -15.8920 -19.5905 77.9097 -0.0387 -3.3825 3.9420 -0.0576 1.5493 -4.2616 -3.1216 1.3334 25.3164 -1.0656 0.6466 14.2609 0.4653 0.0103 1.7384 -7.9746 -2.2533 -9.4929 5.9788 -2.2685 -2.3673 3.2767 -0.9978 1.0885 0.0000 -0.0000 0.0000 -40.2854 -12.6199 84.4122 84.2295 -59.8738 -55.0047 -0.0000 -0.0000 27.8161 38.9183 7.0492 5.6589 -7.1250 0.0000 -0.0000 10.5026 38.8066 -1.6235 0.0000 -0.0000 0.0000 42.5750 10.4728 81.9772 -93.6674 59.9491 -63.1756 0.0000 0.0000 37.1816 -53.3912 24.8072 -29.4563 7.1250 -0.0000 -0.0000 -13.7456 6.8462 -15.7203
0.0927 15.6708 -6.2846 -356.6800 -26.7080 339.0910 0.0000 0.0000 0.0000 -6.4252 -5.1100 -36.6934 13.5920 18.9856 70.9544 0.2274 -5.9371 13.1097 0.1247 -2.2767 -6.2710 0.0000 0.0000 0.0000 -1.5688 6.2435 -39.2554 -15.9164 -19.5954 77.9824 -0.0390 -3.2351 3.8970 -0.0716 1.7260 -4.7491 -3.2177 1.3463 25.2896 -1.1024 0.6454 14.2272 0.4805 0.0073 1.7132 -8.0379 -2.2508 -9.3978 5.9658 -2.2674 -2.2592 3.2850 -0.9988 1.1079 -0.0000 0.0000 0.0000 -40.5723 -12.3194 84.0776 84.1134 -59.8687 -54.9043 -0.0000 -0.0000 28.4711 38.8386 6.5027 5.2099 -7.1250 0.0000 -0.0000 10.3777 38.1139 -1.7826 -0.0000 0.0000 0.0000 42.6415 10.4106 81.8854 -93.5255 59.9530 -63.0527 0.0000 0.0000 37.1429 -52.9642 24.4289 -28.7273 7.1250 -0.0000 -0.0000 -13.6225 6.1241 -15.4193
